<?xml version="1.0" encoding="UTF-8"?>
<svg version="1.1" viewBox="0 0 1280 800" xml:space="preserve" xmlns="http://www.w3.org/2000/svg">
	<path fill="#eb2f06" d="m175.2 407.5c-2.8-30.2 10.1-57.6 31.5-75 8.3-6.8 20.8-1 20.8 9.8 0 3.9-1.9 7.6-4.9 10-15.2 12.4-24.3 31.9-22.1 53.4 2.9 28 25.4 50.8 53.4 53.9 36.6 4.1 67.6-24.5 67.6-60.3 0-19-8.8-35.9-22.5-47-3-2.5-4.9-6.1-4.9-10 0-10.6 12.3-16.6 20.6-10 19.6 15.8 32.1 39.9 32.1 67 0 49.5-42.1 89.4-92.3 85.8-41.6-2.9-75.5-36-79.3-77.6zm85.6-113.3c-7 0-12.7 5.7-12.7 12.7v58.4c0 7 5.7 12.7 12.7 12.7s12.7-5.7 12.7-12.7v-58.4c0-7-5.7-12.7-12.7-12.7z"/>
	<path fill="#282828" d="m142.8 456.5c2.6 2.9 3.8 6.5 3.8 11s-1.7 8.2-5.1 11c-3.4 2.9-7.7 4.3-13 4.3h-5.5c-10 0-19.1-2.6-27.4-7.8s-14.8-12.3-19.4-21.3c-4.7-9-7-19.1-7-30.3v-75.7h-14.2c-4.3 0-7.8-1.2-10.4-3.7-2.7-2.5-4-5.5-4-9.2 0-4.1 1.3-7.4 4-9.8s6.1-3.7 10.4-3.7h14.1v-44.1c0-4.5 1.4-8.2 4.3-11 2.9-2.9 6.5-4.3 11-4.3s8.2 1.4 11 4.3c2.9 2.9 4.3 6.5 4.3 11v44.1h26c4.3 0 7.8 1.2 10.4 3.7 2.7 2.5 4 5.7 4 9.8 0 3.7-1.3 6.7-4 9.2s-6.1 3.7-10.4 3.7h-26v75.7c0 8.2 2.2 15 6.7 20.5s10 8.3 16.5 8.3h10.4c3.8 0 6.9 1.5 9.5 4.3z"/>
	<path fill="#282828" d="m510.9 325c12.8 7.3 22.8 17.3 30 30.2s10.9 27.6 10.9 44.1v66.2c0 16.1-3.6 30.8-10.7 44.1s-17.2 23.7-30.2 31.4-27.6 11.5-44 11.5c-14.7 0-28.4-2.9-41-8.7-12.7-5.8-23.3-14.1-31.9-25-2.2-2.9-3.4-5.7-3.4-8.6 0-4.3 2.1-8 6.4-11 2.9-1.8 5.7-2.8 8.6-2.8 5.1 0 9.3 2.1 12.6 6.4 5.5 7.1 12.5 12.6 20.8 16.4 8.4 3.8 17.9 5.7 28.5 5.7 10 0 19.1-2.4 27.3-7.2s14.7-11.8 19.6-21.1 7.4-20.4 7.4-33.2v-15c-6.3 11.2-14.7 20-25.1 26.3s-22.2 9.5-35.2 9.5c-15.1 0-28.6-3.6-40.6-10.9-11.9-7.2-21.2-17.3-27.9-30.2-6.6-12.9-10-27.5-10-43.8 0-16.5 3.6-31.2 10.7-44.1s17.2-22.9 30-30.2c12.9-7.2 27.5-10.9 43.8-10.9 16.2 0 30.6 3.6 43.4 10.9zm-15.3 124.2c8.3-4.9 14.7-11.7 19.3-20.4s6.9-18.5 6.9-29.6c0-11-2.3-20.9-6.9-29.7s-11-15.6-19.3-20.5-17.6-7.4-28-7.4-19.8 2.5-28 7.4c-8.3 4.9-14.8 11.7-19.4 20.5-4.7 8.8-7 18.7-7 29.7s2.3 20.9 7 29.6 11.2 15.5 19.4 20.4c8.3 4.9 17.6 7.4 28 7.4 10.4-0.1 19.7-2.5 28-7.4z"/>
	<path fill="#282828" d="m717.6 325c12.8 7.3 22.8 17.3 30 30.2s10.9 27.6 10.9 44.1v66.2c0 16.1-3.6 30.8-10.7 44.1-7.2 13.3-17.2 23.7-30.2 31.4s-27.6 11.5-44 11.5c-14.7 0-28.4-2.9-41-8.7-12.7-5.8-23.3-14.1-31.9-25-2.2-2.9-3.4-5.7-3.4-8.6 0-4.3 2.1-8 6.4-11 2.9-1.8 5.7-2.8 8.6-2.8 5.1 0 9.3 2.1 12.6 6.4 5.5 7.1 12.5 12.6 20.8 16.4 8.4 3.8 17.9 5.7 28.5 5.7 10 0 19.1-2.4 27.3-7.2s14.7-11.8 19.6-21.1 7.4-20.4 7.4-33.2v-15c-6.3 11.2-14.7 20-25.1 26.3s-22.2 9.5-35.2 9.5c-15.1 0-28.6-3.6-40.6-10.9-11.9-7.2-21.2-17.3-27.9-30.2-6.6-12.9-10-27.5-10-43.8 0-16.5 3.6-31.2 10.7-44.1s17.2-22.9 30-30.2c12.9-7.2 27.5-10.9 43.8-10.9 16.2 0 30.7 3.6 43.4 10.9zm-15.3 124.2c8.3-4.9 14.7-11.7 19.3-20.4s6.9-18.5 6.9-29.6c0-11-2.3-20.9-6.9-29.7s-11-15.6-19.3-20.5-17.6-7.4-28-7.4-19.8 2.5-28 7.4c-8.3 4.9-14.8 11.7-19.5 20.5s-7 18.7-7 29.7 2.3 20.9 7 29.6 11.2 15.5 19.5 20.4 17.6 7.4 28 7.4c10.4-0.1 19.8-2.5 28-7.4z"/>
	<path fill="#282828" d="m803.2 247.9c2.9-2.9 6.5-4.3 11-4.3s8.2 1.4 11 4.3c2.9 2.9 4.3 6.5 4.3 11v167.2c0 7.6 1.4 13.8 4.3 18.7s6.5 7.4 11 7.4h7.7c4.1 0 7.4 1.4 10 4.3s3.8 6.5 3.8 11-1.9 8.2-5.8 11c-3.9 2.9-8.9 4.3-15 4.3h-0.6c-8.8 0-16.7-2.4-23.7-7.2s-12.5-11.5-16.4-20.2-5.8-18.4-5.8-29.3v-167.1c0-4.5 1.4-8.2 4.2-11.1z"/>
	<path fill="#282828" d="m929.9 253.6c4 4 6 8.7 6 14.2s-2 10.3-6 14.2c-4 4-8.7 6-14.2 6s-10.3-2-14.2-6c-4-4-6-8.7-6-14.2s2-10.3 6-14.2c4-4 8.7-6 14.2-6s10.2 2 14.2 6zm-25.4 66c3-2.9 6.7-4.3 11.2-4.3 4.7 0 8.5 1.4 11.3 4.3 2.9 2.9 4.3 6.6 4.3 11.3v136.3c0 4.5-1.4 8.2-4.3 11.2s-6.6 4.4-11.3 4.4c-4.5 0-8.2-1.5-11.2-4.4-3-3-4.4-6.7-4.4-11.2v-136.3c-0.1-4.7 1.4-8.4 4.4-11.3z"/>
	<path fill="#282828" d="m1034.2 283.2c-6.9 7.6-10.4 17.6-10.4 30v8.3h31.2c4.3 0 7.8 1.2 10.4 3.7s4 5.7 4 9.8c0 3.7-1.3 6.7-4 9.2s-6.1 3.7-10.4 3.7h-31.2v119.4c0 4.7-1.4 8.5-4.3 11.3-2.9 2.9-6.8 4.3-11.9 4.3-4.1 0-7.6-1.4-10.6-4.3s-4.4-6.6-4.4-11.3v-119.5h-13.2c-4.3 0-7.8-1.2-10.4-3.7-2.7-2.5-4-5.5-4-9.2 0-4.1 1.3-7.4 4-9.8s6.1-3.7 10.4-3.7h13.2v-5.2c0-14.5 2.9-27.2 8.7-38.1s14-19.4 24.5-25.4 22.5-9 36-9c4.5 0 8.2 1.3 11.2 4s4.4 6 4.4 10.1-1.5 7.5-4.4 10.1c-3 2.7-6.7 4-11.2 4-11.5-0.1-20.7 3.7-27.6 11.3z"/>
	<path fill="#282828" d="m1239.4 328.8c0 2-0.6 4.5-1.8 7.4l-93.7 210.7c-2.4 6.3-6.4 9.5-11.9 9.5-2 0-4.5-0.6-7.4-1.8-6.1-2.7-9.2-6.6-9.2-11.9 0-2.5 0.6-4.9 1.8-7.4l30.6-68.9-68.9-130.8c-1-1.8-1.5-4-1.5-6.4 0-2.7 0.8-5.1 2.5-7.4 1.6-2.2 3.8-4 6.4-5.2 1.8-0.8 3.9-1.2 6.1-1.2 5.7 0 10 2.9 12.9 8.6l56 111.5 49.3-111.2c2.7-5.9 6.6-8.9 11.9-8.9 2.6 0 5.1 0.5 7.4 1.5 6.3 2.4 9.5 6.4 9.5 11.9z"/>
</svg>
