<?xml version="1.0" encoding="utf-8"?>
<!-- Generator: Adobe Illustrator 22.0.1, SVG Export Plug-In . SVG Version: 6.00 Build 0)  -->
<svg version="1.1" id="Layer_1" xmlns="http://www.w3.org/2000/svg" xmlns:xlink="http://www.w3.org/1999/xlink" x="0px" y="0px"
	 viewBox="0 0 1024 1024" style="enable-background:new 0 0 1024 1024;" xml:space="preserve">
<style type="text/css">
	.st0{fill:#EB2F06;}
</style>
<path class="st0" d="M78.8,601.2c-14.2-152.8,51.1-291.4,159.4-379.5c42-34.4,105.2-5.1,105.2,49.6c0,19.7-9.6,38.5-24.8,50.6
	c-76.9,62.7-122.9,161.4-111.8,270.2c14.7,141.7,128.5,257,270.2,272.7c185.2,20.7,342-124,342-305.1c0-96.1-44.5-181.6-113.8-237.8
	c-15.2-12.6-24.8-30.9-24.8-50.6c0-53.6,62.2-84,104.2-50.6c99.2,79.9,162.4,201.9,162.4,339c0,250.4-213,452.3-467,434.1
	C269.6,979.2,98.1,811.7,78.8,601.2L78.8,601.2z M511.9,28c-35.4,0-64.3,28.8-64.3,64.3v295.5c0,35.4,28.8,64.3,64.3,64.3
	s64.3-28.8,64.3-64.3V92.3C576.2,56.8,547.3,28,511.9,28z"/>
</svg>
